<svg xmlns="http://www.w3.org/2000/svg" xmlns:xlink="http://www.w3.org/1999/xlink" width="500" zoomAndPan="magnify" viewBox="0 0 375 374.999991" height="500" preserveAspectRatio="xMidYMid meet" version="1.0"><defs><g/><clipPath id="6cb598763d"><path d="M 154 105.871094 L 220 105.871094 L 220 201.871094 L 154 201.871094 Z M 154 105.871094 " clip-rule="nonzero"/></clipPath><clipPath id="4e1482edde"><path d="M 230 133 L 231.464844 133 L 231.464844 134 L 230 134 Z M 230 133 " clip-rule="nonzero"/></clipPath></defs><rect x="-37.5" width="450" fill="#ffffff" y="-37.499999" height="449.999989" fill-opacity="1"/><rect x="-37.5" width="450" fill="#efefec" y="-37.499999" height="449.999989" fill-opacity="1"/><g clip-path="url(#6cb598763d)"><path fill="#403e3e" d="M 186.554688 105.886719 C 186.554688 105.886719 165.964844 141.546875 159.101562 153.433594 C 153.359375 163.375 153.542969 175.109375 158.554688 184.554688 L 159.117188 185.527344 C 164.875 195.5 175.175781 201.210938 185.898438 201.558594 C 186.070312 201.566406 186.246094 201.566406 186.417969 201.574219 L 186.429688 201.574219 C 186.996094 201.597656 187.203125 200.835938 186.703125 200.566406 C 143.71875 177.496094 215.289062 156.835938 186.554688 105.886719 Z M 215.214844 184.597656 L 214.679688 185.527344 C 211.789062 190.535156 207.746094 194.46875 203.082031 197.191406 C 199.597656 199.226562 193.03125 200.992188 190.125 198.191406 C 171.996094 180.730469 205.804688 167.070312 206.84375 143.425781 C 206.886719 142.453125 208.179688 142.140625 208.667969 142.984375 L 214.699219 153.433594 C 220.445312 163.394531 220.253906 175.148438 215.214844 184.597656 " fill-opacity="1" fill-rule="nonzero"/></g><g clip-path="url(#4e1482edde)"><path fill="#403e3e" d="M 231.085938 133.875 C 231.285156 133.875 231.285156 133.570312 231.085938 133.570312 C 230.890625 133.570312 230.890625 133.875 231.085938 133.875 " fill-opacity="1" fill-rule="nonzero"/></g><g fill="#403e3e" fill-opacity="1"><g transform="translate(110.722088, 255.268577)"><g><path d="M 2.515625 0.09375 C 2.160156 0.09375 1.847656 0.046875 1.578125 -0.046875 C 1.304688 -0.148438 1.085938 -0.257812 0.921875 -0.375 C 0.710938 -0.507812 0.539062 -0.671875 0.40625 -0.859375 L 0.8125 -1.3125 C 0.925781 -1.164062 1.0625 -1.035156 1.21875 -0.921875 C 1.363281 -0.828125 1.539062 -0.738281 1.75 -0.65625 C 1.96875 -0.582031 2.222656 -0.546875 2.515625 -0.546875 C 2.992188 -0.546875 3.351562 -0.65625 3.59375 -0.875 C 3.832031 -1.09375 3.953125 -1.367188 3.953125 -1.703125 C 3.953125 -1.910156 3.898438 -2.078125 3.796875 -2.203125 C 3.703125 -2.335938 3.578125 -2.445312 3.421875 -2.53125 C 3.265625 -2.625 3.082031 -2.703125 2.875 -2.765625 C 2.675781 -2.828125 2.46875 -2.890625 2.25 -2.953125 C 2.03125 -3.023438 1.816406 -3.097656 1.609375 -3.171875 C 1.410156 -3.253906 1.234375 -3.359375 1.078125 -3.484375 C 0.921875 -3.617188 0.789062 -3.78125 0.6875 -3.96875 C 0.59375 -4.15625 0.546875 -4.394531 0.546875 -4.6875 C 0.546875 -4.90625 0.585938 -5.117188 0.671875 -5.328125 C 0.765625 -5.535156 0.898438 -5.71875 1.078125 -5.875 C 1.253906 -6.03125 1.46875 -6.15625 1.71875 -6.25 C 1.96875 -6.34375 2.25 -6.390625 2.5625 -6.390625 C 2.875 -6.390625 3.140625 -6.347656 3.359375 -6.265625 C 3.585938 -6.179688 3.78125 -6.085938 3.9375 -5.984375 C 4.125 -5.867188 4.28125 -5.734375 4.40625 -5.578125 L 3.953125 -5.125 C 3.859375 -5.238281 3.742188 -5.34375 3.609375 -5.4375 C 3.484375 -5.519531 3.335938 -5.59375 3.171875 -5.65625 C 3.003906 -5.726562 2.800781 -5.765625 2.5625 -5.765625 C 2.34375 -5.765625 2.148438 -5.734375 1.984375 -5.671875 C 1.816406 -5.609375 1.675781 -5.523438 1.5625 -5.421875 C 1.445312 -5.328125 1.359375 -5.210938 1.296875 -5.078125 C 1.242188 -4.953125 1.21875 -4.820312 1.21875 -4.6875 C 1.21875 -4.414062 1.300781 -4.203125 1.46875 -4.046875 C 1.632812 -3.898438 1.84375 -3.78125 2.09375 -3.6875 C 2.351562 -3.59375 2.628906 -3.503906 2.921875 -3.421875 C 3.210938 -3.347656 3.484375 -3.242188 3.734375 -3.109375 C 3.992188 -2.984375 4.207031 -2.8125 4.375 -2.59375 C 4.550781 -2.375 4.640625 -2.078125 4.640625 -1.703125 C 4.640625 -1.453125 4.59375 -1.21875 4.5 -1 C 4.40625 -0.78125 4.265625 -0.585938 4.078125 -0.421875 C 3.898438 -0.265625 3.679688 -0.140625 3.421875 -0.046875 C 3.160156 0.046875 2.859375 0.09375 2.515625 0.09375 Z M 2.515625 0.09375 "/></g></g></g><g fill="#403e3e" fill-opacity="1"><g transform="translate(118.012122, 255.268577)"><g><path d="M 0.9375 -6.296875 L 1.625 -6.296875 L 1.625 -2.75 L 4.859375 -6.296875 L 5.71875 -6.296875 L 3.328125 -3.6875 L 5.9375 0 L 5.125 0 L 2.875 -3.1875 L 1.625 -1.84375 L 1.625 0 L 0.9375 0 Z M 0.9375 -6.296875 "/></g></g></g><g fill="#403e3e" fill-opacity="1"><g transform="translate(126.247162, 255.268577)"><g><path d="M 2.515625 -2.203125 L 0.1875 -6.296875 L 0.9375 -6.296875 L 2.828125 -2.921875 L 2.875 -2.921875 L 4.765625 -6.296875 L 5.53125 -6.296875 L 3.1875 -2.203125 L 3.1875 0 L 2.515625 0 Z M 2.515625 -2.203125 "/></g></g></g><g fill="#403e3e" fill-opacity="1"><g transform="translate(134.167204, 255.268577)"><g/></g></g><g fill="#403e3e" fill-opacity="1"><g transform="translate(138.262219, 255.268577)"><g><path d="M 3.78125 0.09375 C 3.332031 0.09375 2.910156 0.0078125 2.515625 -0.15625 C 2.117188 -0.320312 1.773438 -0.550781 1.484375 -0.84375 C 1.191406 -1.144531 0.960938 -1.488281 0.796875 -1.875 C 0.628906 -2.269531 0.546875 -2.695312 0.546875 -3.15625 C 0.546875 -3.601562 0.628906 -4.019531 0.796875 -4.40625 C 0.960938 -4.800781 1.191406 -5.144531 1.484375 -5.4375 C 1.773438 -5.738281 2.117188 -5.972656 2.515625 -6.140625 C 2.910156 -6.304688 3.332031 -6.390625 3.78125 -6.390625 C 4.226562 -6.390625 4.648438 -6.304688 5.046875 -6.140625 C 5.441406 -5.972656 5.785156 -5.738281 6.078125 -5.4375 C 6.367188 -5.144531 6.597656 -4.800781 6.765625 -4.40625 C 6.929688 -4.019531 7.015625 -3.601562 7.015625 -3.15625 C 7.015625 -2.695312 6.929688 -2.269531 6.765625 -1.875 C 6.597656 -1.488281 6.367188 -1.144531 6.078125 -0.84375 C 5.785156 -0.550781 5.441406 -0.320312 5.046875 -0.15625 C 4.648438 0.0078125 4.226562 0.09375 3.78125 0.09375 Z M 3.78125 -0.546875 C 4.132812 -0.546875 4.46875 -0.609375 4.78125 -0.734375 C 5.09375 -0.867188 5.363281 -1.050781 5.59375 -1.28125 C 5.832031 -1.519531 6.015625 -1.796875 6.140625 -2.109375 C 6.273438 -2.429688 6.34375 -2.78125 6.34375 -3.15625 C 6.34375 -3.519531 6.273438 -3.859375 6.140625 -4.171875 C 6.015625 -4.492188 5.832031 -4.769531 5.59375 -5 C 5.363281 -5.238281 5.09375 -5.425781 4.78125 -5.5625 C 4.46875 -5.695312 4.132812 -5.765625 3.78125 -5.765625 C 3.414062 -5.765625 3.078125 -5.695312 2.765625 -5.5625 C 2.453125 -5.425781 2.179688 -5.238281 1.953125 -5 C 1.722656 -4.769531 1.539062 -4.492188 1.40625 -4.171875 C 1.28125 -3.859375 1.21875 -3.519531 1.21875 -3.15625 C 1.21875 -2.78125 1.28125 -2.429688 1.40625 -2.109375 C 1.539062 -1.796875 1.722656 -1.519531 1.953125 -1.28125 C 2.179688 -1.050781 2.453125 -0.867188 2.765625 -0.734375 C 3.078125 -0.609375 3.414062 -0.546875 3.78125 -0.546875 Z M 3.78125 -0.546875 "/></g></g></g><g fill="#403e3e" fill-opacity="1"><g transform="translate(148.027279, 255.268577)"><g><path d="M 0.9375 -6.296875 L 5.21875 -6.296875 L 5.21875 -5.671875 L 1.625 -5.671875 L 1.625 -3.515625 L 4.5 -3.515625 L 4.5 -2.875 L 1.625 -2.875 L 1.625 0 L 0.9375 0 Z M 0.9375 -6.296875 "/></g></g></g><g fill="#403e3e" fill-opacity="1"><g transform="translate(155.767318, 255.268577)"><g/></g></g><g fill="#403e3e" fill-opacity="1"><g transform="translate(159.862334, 255.268577)"><g><path d="M 2.515625 0.09375 C 2.160156 0.09375 1.847656 0.046875 1.578125 -0.046875 C 1.304688 -0.148438 1.085938 -0.257812 0.921875 -0.375 C 0.710938 -0.507812 0.539062 -0.671875 0.40625 -0.859375 L 0.8125 -1.3125 C 0.925781 -1.164062 1.0625 -1.035156 1.21875 -0.921875 C 1.363281 -0.828125 1.539062 -0.738281 1.75 -0.65625 C 1.96875 -0.582031 2.222656 -0.546875 2.515625 -0.546875 C 2.992188 -0.546875 3.351562 -0.65625 3.59375 -0.875 C 3.832031 -1.09375 3.953125 -1.367188 3.953125 -1.703125 C 3.953125 -1.910156 3.898438 -2.078125 3.796875 -2.203125 C 3.703125 -2.335938 3.578125 -2.445312 3.421875 -2.53125 C 3.265625 -2.625 3.082031 -2.703125 2.875 -2.765625 C 2.675781 -2.828125 2.46875 -2.890625 2.25 -2.953125 C 2.03125 -3.023438 1.816406 -3.097656 1.609375 -3.171875 C 1.410156 -3.253906 1.234375 -3.359375 1.078125 -3.484375 C 0.921875 -3.617188 0.789062 -3.78125 0.6875 -3.96875 C 0.59375 -4.15625 0.546875 -4.394531 0.546875 -4.6875 C 0.546875 -4.90625 0.585938 -5.117188 0.671875 -5.328125 C 0.765625 -5.535156 0.898438 -5.71875 1.078125 -5.875 C 1.253906 -6.03125 1.46875 -6.15625 1.71875 -6.25 C 1.96875 -6.34375 2.25 -6.390625 2.5625 -6.390625 C 2.875 -6.390625 3.140625 -6.347656 3.359375 -6.265625 C 3.585938 -6.179688 3.78125 -6.085938 3.9375 -5.984375 C 4.125 -5.867188 4.28125 -5.734375 4.40625 -5.578125 L 3.953125 -5.125 C 3.859375 -5.238281 3.742188 -5.34375 3.609375 -5.4375 C 3.484375 -5.519531 3.335938 -5.59375 3.171875 -5.65625 C 3.003906 -5.726562 2.800781 -5.765625 2.5625 -5.765625 C 2.34375 -5.765625 2.148438 -5.734375 1.984375 -5.671875 C 1.816406 -5.609375 1.675781 -5.523438 1.5625 -5.421875 C 1.445312 -5.328125 1.359375 -5.210938 1.296875 -5.078125 C 1.242188 -4.953125 1.21875 -4.820312 1.21875 -4.6875 C 1.21875 -4.414062 1.300781 -4.203125 1.46875 -4.046875 C 1.632812 -3.898438 1.84375 -3.78125 2.09375 -3.6875 C 2.351562 -3.59375 2.628906 -3.503906 2.921875 -3.421875 C 3.210938 -3.347656 3.484375 -3.242188 3.734375 -3.109375 C 3.992188 -2.984375 4.207031 -2.8125 4.375 -2.59375 C 4.550781 -2.375 4.640625 -2.078125 4.640625 -1.703125 C 4.640625 -1.453125 4.59375 -1.21875 4.5 -1 C 4.40625 -0.78125 4.265625 -0.585938 4.078125 -0.421875 C 3.898438 -0.265625 3.679688 -0.140625 3.421875 -0.046875 C 3.160156 0.046875 2.859375 0.09375 2.515625 0.09375 Z M 2.515625 0.09375 "/></g></g></g><g fill="#403e3e" fill-opacity="1"><g transform="translate(167.152369, 255.268577)"><g><path d="M 2.796875 -6.296875 L 3.421875 -6.296875 L 6.03125 0 L 5.3125 0 L 4.59375 -1.75 L 1.625 -1.75 L 0.90625 0 L 0.1875 0 Z M 4.3125 -2.390625 L 3.109375 -5.359375 L 1.890625 -2.390625 Z M 4.3125 -2.390625 "/></g></g></g><g fill="#403e3e" fill-opacity="1"><g transform="translate(175.567415, 255.268577)"><g><path d="M 3.78125 0.09375 C 3.332031 0.09375 2.910156 0.0078125 2.515625 -0.15625 C 2.117188 -0.320312 1.773438 -0.550781 1.484375 -0.84375 C 1.191406 -1.144531 0.960938 -1.488281 0.796875 -1.875 C 0.628906 -2.269531 0.546875 -2.695312 0.546875 -3.15625 C 0.546875 -3.601562 0.628906 -4.019531 0.796875 -4.40625 C 0.960938 -4.800781 1.191406 -5.144531 1.484375 -5.4375 C 1.773438 -5.738281 2.117188 -5.972656 2.515625 -6.140625 C 2.910156 -6.304688 3.332031 -6.390625 3.78125 -6.390625 C 4.207031 -6.390625 4.578125 -6.316406 4.890625 -6.171875 C 5.210938 -6.035156 5.484375 -5.890625 5.703125 -5.734375 C 5.953125 -5.535156 6.164062 -5.316406 6.34375 -5.078125 L 5.890625 -4.6875 C 5.742188 -4.882812 5.570312 -5.0625 5.375 -5.21875 C 5.195312 -5.351562 4.972656 -5.476562 4.703125 -5.59375 C 4.441406 -5.707031 4.132812 -5.765625 3.78125 -5.765625 C 3.414062 -5.765625 3.078125 -5.695312 2.765625 -5.5625 C 2.453125 -5.425781 2.179688 -5.238281 1.953125 -5 C 1.722656 -4.769531 1.539062 -4.492188 1.40625 -4.171875 C 1.28125 -3.859375 1.21875 -3.519531 1.21875 -3.15625 C 1.21875 -2.78125 1.28125 -2.429688 1.40625 -2.109375 C 1.539062 -1.796875 1.722656 -1.519531 1.953125 -1.28125 C 2.179688 -1.050781 2.453125 -0.867188 2.765625 -0.734375 C 3.078125 -0.609375 3.414062 -0.546875 3.78125 -0.546875 C 4.132812 -0.546875 4.445312 -0.597656 4.71875 -0.703125 C 4.988281 -0.816406 5.21875 -0.941406 5.40625 -1.078125 C 5.613281 -1.234375 5.789062 -1.414062 5.9375 -1.625 L 6.390625 -1.21875 C 6.203125 -0.96875 5.976562 -0.75 5.71875 -0.5625 C 5.5 -0.394531 5.226562 -0.242188 4.90625 -0.109375 C 4.582031 0.0234375 4.207031 0.09375 3.78125 0.09375 Z M 3.78125 0.09375 "/></g></g></g><g fill="#403e3e" fill-opacity="1"><g transform="translate(184.522462, 255.268577)"><g><path d="M 0.9375 -6.296875 L 3.46875 -6.296875 C 3.75 -6.296875 4.003906 -6.25 4.234375 -6.15625 C 4.472656 -6.0625 4.675781 -5.929688 4.84375 -5.765625 C 5.019531 -5.597656 5.15625 -5.394531 5.25 -5.15625 C 5.351562 -4.925781 5.40625 -4.675781 5.40625 -4.40625 C 5.40625 -4.050781 5.332031 -3.753906 5.1875 -3.515625 C 5.050781 -3.285156 4.90625 -3.101562 4.75 -2.96875 C 4.550781 -2.8125 4.332031 -2.691406 4.09375 -2.609375 L 5.578125 0 L 4.8125 0 L 3.421875 -2.515625 L 1.625 -2.515625 L 1.625 0 L 0.9375 0 Z M 3.46875 -3.15625 C 3.851562 -3.15625 4.15625 -3.265625 4.375 -3.484375 C 4.601562 -3.710938 4.71875 -4.019531 4.71875 -4.40625 C 4.71875 -4.789062 4.601562 -5.097656 4.375 -5.328125 C 4.15625 -5.554688 3.851562 -5.671875 3.46875 -5.671875 L 1.625 -5.671875 L 1.625 -3.15625 Z M 3.46875 -3.15625 "/></g></g></g><g fill="#403e3e" fill-opacity="1"><g transform="translate(192.802502, 255.268577)"><g><path d="M 0.9375 -6.296875 L 5.265625 -6.296875 L 5.265625 -5.671875 L 1.625 -5.671875 L 1.625 -3.59375 L 4.546875 -3.59375 L 4.546875 -2.96875 L 1.625 -2.96875 L 1.625 -0.625 L 5.359375 -0.625 L 5.359375 0 L 0.9375 0 Z M 0.9375 -6.296875 "/></g></g></g><g fill="#403e3e" fill-opacity="1"><g transform="translate(200.767544, 255.268577)"><g><path d="M 0.9375 -6.296875 L 2.921875 -6.296875 C 3.390625 -6.296875 3.820312 -6.210938 4.21875 -6.046875 C 4.613281 -5.878906 4.957031 -5.648438 5.25 -5.359375 C 5.550781 -5.078125 5.785156 -4.742188 5.953125 -4.359375 C 6.117188 -3.972656 6.203125 -3.570312 6.203125 -3.15625 C 6.203125 -2.726562 6.117188 -2.320312 5.953125 -1.9375 C 5.785156 -1.5625 5.550781 -1.226562 5.25 -0.9375 C 4.957031 -0.644531 4.613281 -0.414062 4.21875 -0.25 C 3.820312 -0.0820312 3.390625 0 2.921875 0 L 0.9375 0 Z M 2.921875 -0.625 C 3.296875 -0.625 3.640625 -0.691406 3.953125 -0.828125 C 4.273438 -0.960938 4.550781 -1.140625 4.78125 -1.359375 C 5.019531 -1.585938 5.203125 -1.851562 5.328125 -2.15625 C 5.460938 -2.46875 5.53125 -2.800781 5.53125 -3.15625 C 5.53125 -3.5 5.460938 -3.820312 5.328125 -4.125 C 5.203125 -4.4375 5.019531 -4.707031 4.78125 -4.9375 C 4.550781 -5.164062 4.273438 -5.34375 3.953125 -5.46875 C 3.640625 -5.601562 3.296875 -5.671875 2.921875 -5.671875 L 1.625 -5.671875 L 1.625 -0.625 Z M 2.921875 -0.625 "/></g></g></g><g fill="#403e3e" fill-opacity="1"><g transform="translate(209.722585, 255.268577)"><g/></g></g><g fill="#403e3e" fill-opacity="1"><g transform="translate(213.817602, 255.268577)"><g><path d="M 2.796875 -6.296875 L 3.421875 -6.296875 L 6.03125 0 L 5.3125 0 L 4.59375 -1.75 L 1.625 -1.75 L 0.90625 0 L 0.1875 0 Z M 4.3125 -2.390625 L 3.109375 -5.359375 L 1.890625 -2.390625 Z M 4.3125 -2.390625 "/></g></g></g><g fill="#403e3e" fill-opacity="1"><g transform="translate(222.232648, 255.268577)"><g><path d="M 0.9375 -6.296875 L 3.46875 -6.296875 C 3.75 -6.296875 4.003906 -6.25 4.234375 -6.15625 C 4.472656 -6.0625 4.675781 -5.929688 4.84375 -5.765625 C 5.019531 -5.597656 5.15625 -5.394531 5.25 -5.15625 C 5.351562 -4.925781 5.40625 -4.675781 5.40625 -4.40625 C 5.40625 -4.050781 5.332031 -3.753906 5.1875 -3.515625 C 5.050781 -3.285156 4.90625 -3.101562 4.75 -2.96875 C 4.550781 -2.8125 4.332031 -2.691406 4.09375 -2.609375 L 5.578125 0 L 4.8125 0 L 3.421875 -2.515625 L 1.625 -2.515625 L 1.625 0 L 0.9375 0 Z M 3.46875 -3.15625 C 3.851562 -3.15625 4.15625 -3.265625 4.375 -3.484375 C 4.601562 -3.710938 4.71875 -4.019531 4.71875 -4.40625 C 4.71875 -4.789062 4.601562 -5.097656 4.375 -5.328125 C 4.15625 -5.554688 3.851562 -5.671875 3.46875 -5.671875 L 1.625 -5.671875 L 1.625 -3.15625 Z M 3.46875 -3.15625 "/></g></g></g><g fill="#403e3e" fill-opacity="1"><g transform="translate(230.512688, 255.268577)"><g><path d="M 3.78125 0.09375 C 3.332031 0.09375 2.910156 0.0078125 2.515625 -0.15625 C 2.117188 -0.320312 1.773438 -0.550781 1.484375 -0.84375 C 1.191406 -1.144531 0.960938 -1.488281 0.796875 -1.875 C 0.628906 -2.269531 0.546875 -2.695312 0.546875 -3.15625 C 0.546875 -3.601562 0.628906 -4.019531 0.796875 -4.40625 C 0.960938 -4.800781 1.191406 -5.144531 1.484375 -5.4375 C 1.773438 -5.738281 2.117188 -5.972656 2.515625 -6.140625 C 2.910156 -6.304688 3.332031 -6.390625 3.78125 -6.390625 C 4.226562 -6.390625 4.648438 -6.304688 5.046875 -6.140625 C 5.441406 -5.972656 5.785156 -5.738281 6.078125 -5.4375 C 6.367188 -5.144531 6.597656 -4.800781 6.765625 -4.40625 C 6.929688 -4.019531 7.015625 -3.601562 7.015625 -3.15625 C 7.015625 -2.695312 6.929688 -2.269531 6.765625 -1.875 C 6.597656 -1.488281 6.367188 -1.144531 6.078125 -0.84375 C 5.785156 -0.550781 5.441406 -0.320312 5.046875 -0.15625 C 4.648438 0.0078125 4.226562 0.09375 3.78125 0.09375 Z M 3.78125 -0.546875 C 4.132812 -0.546875 4.46875 -0.609375 4.78125 -0.734375 C 5.09375 -0.867188 5.363281 -1.050781 5.59375 -1.28125 C 5.832031 -1.519531 6.015625 -1.796875 6.140625 -2.109375 C 6.273438 -2.429688 6.34375 -2.78125 6.34375 -3.15625 C 6.34375 -3.519531 6.273438 -3.859375 6.140625 -4.171875 C 6.015625 -4.492188 5.832031 -4.769531 5.59375 -5 C 5.363281 -5.238281 5.09375 -5.425781 4.78125 -5.5625 C 4.46875 -5.695312 4.132812 -5.765625 3.78125 -5.765625 C 3.414062 -5.765625 3.078125 -5.695312 2.765625 -5.5625 C 2.453125 -5.425781 2.179688 -5.238281 1.953125 -5 C 1.722656 -4.769531 1.539062 -4.492188 1.40625 -4.171875 C 1.28125 -3.859375 1.21875 -3.519531 1.21875 -3.15625 C 1.21875 -2.78125 1.28125 -2.429688 1.40625 -2.109375 C 1.539062 -1.796875 1.722656 -1.519531 1.953125 -1.28125 C 2.179688 -1.050781 2.453125 -0.867188 2.765625 -0.734375 C 3.078125 -0.609375 3.414062 -0.546875 3.78125 -0.546875 Z M 3.78125 -0.546875 "/></g></g></g><g fill="#403e3e" fill-opacity="1"><g transform="translate(240.277748, 255.268577)"><g><path d="M 0.9375 -6.296875 L 1.53125 -6.296875 L 4.140625 -2.875 L 6.75 -6.296875 L 7.328125 -6.296875 L 7.328125 0 L 6.65625 0 L 6.65625 -5.125 L 4.140625 -1.796875 L 1.625 -5.125 L 1.625 0 L 0.9375 0 Z M 0.9375 -6.296875 "/></g></g></g><g fill="#403e3e" fill-opacity="1"><g transform="translate(250.762813, 255.268577)"><g><path d="M 2.796875 -6.296875 L 3.421875 -6.296875 L 6.03125 0 L 5.3125 0 L 4.59375 -1.75 L 1.625 -1.75 L 0.90625 0 L 0.1875 0 Z M 4.3125 -2.390625 L 3.109375 -5.359375 L 1.890625 -2.390625 Z M 4.3125 -2.390625 "/></g></g></g><g fill="#403e3e" fill-opacity="1"><g transform="translate(259.177859, 255.268577)"><g><path d="M 2.515625 0.09375 C 2.160156 0.09375 1.847656 0.046875 1.578125 -0.046875 C 1.304688 -0.148438 1.085938 -0.257812 0.921875 -0.375 C 0.710938 -0.507812 0.539062 -0.671875 0.40625 -0.859375 L 0.8125 -1.3125 C 0.925781 -1.164062 1.0625 -1.035156 1.21875 -0.921875 C 1.363281 -0.828125 1.539062 -0.738281 1.75 -0.65625 C 1.96875 -0.582031 2.222656 -0.546875 2.515625 -0.546875 C 2.992188 -0.546875 3.351562 -0.65625 3.59375 -0.875 C 3.832031 -1.09375 3.953125 -1.367188 3.953125 -1.703125 C 3.953125 -1.910156 3.898438 -2.078125 3.796875 -2.203125 C 3.703125 -2.335938 3.578125 -2.445312 3.421875 -2.53125 C 3.265625 -2.625 3.082031 -2.703125 2.875 -2.765625 C 2.675781 -2.828125 2.46875 -2.890625 2.25 -2.953125 C 2.03125 -3.023438 1.816406 -3.097656 1.609375 -3.171875 C 1.410156 -3.253906 1.234375 -3.359375 1.078125 -3.484375 C 0.921875 -3.617188 0.789062 -3.78125 0.6875 -3.96875 C 0.59375 -4.15625 0.546875 -4.394531 0.546875 -4.6875 C 0.546875 -4.90625 0.585938 -5.117188 0.671875 -5.328125 C 0.765625 -5.535156 0.898438 -5.71875 1.078125 -5.875 C 1.253906 -6.03125 1.46875 -6.15625 1.71875 -6.25 C 1.96875 -6.34375 2.25 -6.390625 2.5625 -6.390625 C 2.875 -6.390625 3.140625 -6.347656 3.359375 -6.265625 C 3.585938 -6.179688 3.78125 -6.085938 3.9375 -5.984375 C 4.125 -5.867188 4.28125 -5.734375 4.40625 -5.578125 L 3.953125 -5.125 C 3.859375 -5.238281 3.742188 -5.34375 3.609375 -5.4375 C 3.484375 -5.519531 3.335938 -5.59375 3.171875 -5.65625 C 3.003906 -5.726562 2.800781 -5.765625 2.5625 -5.765625 C 2.34375 -5.765625 2.148438 -5.734375 1.984375 -5.671875 C 1.816406 -5.609375 1.675781 -5.523438 1.5625 -5.421875 C 1.445312 -5.328125 1.359375 -5.210938 1.296875 -5.078125 C 1.242188 -4.953125 1.21875 -4.820312 1.21875 -4.6875 C 1.21875 -4.414062 1.300781 -4.203125 1.46875 -4.046875 C 1.632812 -3.898438 1.84375 -3.78125 2.09375 -3.6875 C 2.351562 -3.59375 2.628906 -3.503906 2.921875 -3.421875 C 3.210938 -3.347656 3.484375 -3.242188 3.734375 -3.109375 C 3.992188 -2.984375 4.207031 -2.8125 4.375 -2.59375 C 4.550781 -2.375 4.640625 -2.078125 4.640625 -1.703125 C 4.640625 -1.453125 4.59375 -1.21875 4.5 -1 C 4.40625 -0.78125 4.265625 -0.585938 4.078125 -0.421875 C 3.898438 -0.265625 3.679688 -0.140625 3.421875 -0.046875 C 3.160156 0.046875 2.859375 0.09375 2.515625 0.09375 Z M 2.515625 0.09375 "/></g></g></g><g fill="#403e3e" fill-opacity="1"><g transform="translate(111.726458, 236.849677)"><g><path d="M 9.5625 -18.21875 L 14.8125 -4.34375 C 15.195312 -3.351562 15.507812 -2.613281 15.75 -2.125 C 16 -1.644531 16.265625 -1.296875 16.546875 -1.078125 C 16.835938 -0.859375 17.21875 -0.671875 17.6875 -0.515625 L 17.6875 0 L 11.234375 0 L 11.234375 -0.515625 C 12.097656 -0.710938 12.585938 -1.148438 12.703125 -1.828125 C 12.816406 -2.515625 12.695312 -3.316406 12.34375 -4.234375 L 10.96875 -7.953125 L 5.515625 -7.984375 C 5.015625 -6.421875 4.65625 -5.109375 4.4375 -4.046875 C 4.21875 -2.992188 4.222656 -2.179688 4.453125 -1.609375 C 4.691406 -1.035156 5.226562 -0.671875 6.0625 -0.515625 L 6.0625 0 L -0.109375 0 L -0.109375 -0.515625 C 0.222656 -0.585938 0.539062 -0.726562 0.84375 -0.9375 C 1.144531 -1.144531 1.460938 -1.507812 1.796875 -2.03125 C 2.140625 -2.5625 2.53125 -3.328125 2.96875 -4.328125 C 3.414062 -5.335938 3.953125 -6.675781 4.578125 -8.34375 L 8.265625 -18.21875 Z M 8.0625 -15.734375 L 5.765625 -8.703125 L 10.6875 -8.703125 Z M 8.0625 -15.734375 "/></g></g></g><g fill="#403e3e" fill-opacity="1"><g transform="translate(135.849125, 236.849677)"><g><path d="M 5.40625 -13.78125 L 5.40625 -4.34375 C 5.40625 -3.539062 5.4375 -2.890625 5.5 -2.390625 C 5.570312 -1.898438 5.753906 -1.507812 6.046875 -1.21875 C 6.347656 -0.925781 6.835938 -0.691406 7.515625 -0.515625 L 7.515625 0 L 1.015625 0 L 1.015625 -0.515625 C 1.703125 -0.691406 2.1875 -0.929688 2.46875 -1.234375 C 2.75 -1.535156 2.914062 -1.9375 2.96875 -2.4375 C 3.03125 -2.945312 3.0625 -3.582031 3.0625 -4.34375 L 3.0625 -13.78125 C 3.0625 -14.570312 3.023438 -15.210938 2.953125 -15.703125 C 2.890625 -16.203125 2.710938 -16.597656 2.421875 -16.890625 C 2.140625 -17.191406 1.65625 -17.429688 0.96875 -17.609375 L 0.96875 -18.125 L 7.46875 -18.125 L 7.46875 -17.609375 C 6.789062 -17.429688 6.304688 -17.191406 6.015625 -16.890625 C 5.734375 -16.585938 5.5625 -16.1875 5.5 -15.6875 C 5.4375 -15.195312 5.40625 -14.5625 5.40625 -13.78125 Z M 7.9375 -10.265625 L 13.234375 -4.03125 C 13.773438 -3.382812 14.300781 -2.796875 14.8125 -2.265625 C 15.332031 -1.742188 15.867188 -1.320312 16.421875 -1 C 16.984375 -0.675781 17.566406 -0.515625 18.171875 -0.515625 L 18.171875 0 L 13.15625 0 C 13.15625 -0.125 13.109375 -0.273438 13.015625 -0.453125 C 12.921875 -0.640625 12.734375 -0.910156 12.453125 -1.265625 C 12.171875 -1.628906 11.757812 -2.140625 11.21875 -2.796875 C 10.6875 -3.460938 9.992188 -4.316406 9.140625 -5.359375 C 8.285156 -6.398438 7.210938 -7.695312 5.921875 -9.25 L 10.109375 -13.46875 C 10.804688 -14.164062 11.285156 -14.753906 11.546875 -15.234375 C 11.804688 -15.722656 11.910156 -16.125 11.859375 -16.4375 C 11.816406 -16.757812 11.675781 -17.015625 11.4375 -17.203125 C 11.195312 -17.398438 10.90625 -17.539062 10.5625 -17.625 L 10.5625 -18.125 L 16.796875 -18.125 L 16.796875 -17.625 C 16.484375 -17.625 16.101562 -17.484375 15.65625 -17.203125 C 15.21875 -16.929688 14.742188 -16.570312 14.234375 -16.125 C 13.722656 -15.6875 13.195312 -15.21875 12.65625 -14.71875 Z M 7.9375 -10.265625 "/></g></g></g><g fill="#403e3e" fill-opacity="1"><g transform="translate(159.737864, 236.849677)"><g><path d="M 9.5625 -18.21875 L 14.8125 -4.34375 C 15.195312 -3.351562 15.507812 -2.613281 15.75 -2.125 C 16 -1.644531 16.265625 -1.296875 16.546875 -1.078125 C 16.835938 -0.859375 17.21875 -0.671875 17.6875 -0.515625 L 17.6875 0 L 11.234375 0 L 11.234375 -0.515625 C 12.097656 -0.710938 12.585938 -1.148438 12.703125 -1.828125 C 12.816406 -2.515625 12.695312 -3.316406 12.34375 -4.234375 L 10.96875 -7.953125 L 5.515625 -7.984375 C 5.015625 -6.421875 4.65625 -5.109375 4.4375 -4.046875 C 4.21875 -2.992188 4.222656 -2.179688 4.453125 -1.609375 C 4.691406 -1.035156 5.226562 -0.671875 6.0625 -0.515625 L 6.0625 0 L -0.109375 0 L -0.109375 -0.515625 C 0.222656 -0.585938 0.539062 -0.726562 0.84375 -0.9375 C 1.144531 -1.144531 1.460938 -1.507812 1.796875 -2.03125 C 2.140625 -2.5625 2.53125 -3.328125 2.96875 -4.328125 C 3.414062 -5.335938 3.953125 -6.675781 4.578125 -8.34375 L 8.265625 -18.21875 Z M 8.0625 -15.734375 L 5.765625 -8.703125 L 10.6875 -8.703125 Z M 8.0625 -15.734375 "/></g></g></g><g fill="#403e3e" fill-opacity="1"><g transform="translate(183.860532, 236.849677)"><g><path d="M 5.40625 -13.78125 L 5.40625 -4.34375 C 5.40625 -3.539062 5.4375 -2.890625 5.5 -2.390625 C 5.570312 -1.898438 5.753906 -1.507812 6.046875 -1.21875 C 6.347656 -0.925781 6.835938 -0.691406 7.515625 -0.515625 L 7.515625 0 L 1.015625 0 L 1.015625 -0.515625 C 1.703125 -0.691406 2.1875 -0.929688 2.46875 -1.234375 C 2.75 -1.535156 2.914062 -1.9375 2.96875 -2.4375 C 3.03125 -2.945312 3.0625 -3.582031 3.0625 -4.34375 L 3.0625 -13.78125 C 3.0625 -14.570312 3.023438 -15.210938 2.953125 -15.703125 C 2.890625 -16.203125 2.710938 -16.597656 2.421875 -16.890625 C 2.140625 -17.191406 1.65625 -17.429688 0.96875 -17.609375 L 0.96875 -18.125 L 7.46875 -18.125 L 7.46875 -17.609375 C 6.789062 -17.429688 6.304688 -17.191406 6.015625 -16.890625 C 5.734375 -16.585938 5.5625 -16.1875 5.5 -15.6875 C 5.4375 -15.195312 5.40625 -14.5625 5.40625 -13.78125 Z M 7.9375 -10.265625 L 13.234375 -4.03125 C 13.773438 -3.382812 14.300781 -2.796875 14.8125 -2.265625 C 15.332031 -1.742188 15.867188 -1.320312 16.421875 -1 C 16.984375 -0.675781 17.566406 -0.515625 18.171875 -0.515625 L 18.171875 0 L 13.15625 0 C 13.15625 -0.125 13.109375 -0.273438 13.015625 -0.453125 C 12.921875 -0.640625 12.734375 -0.910156 12.453125 -1.265625 C 12.171875 -1.628906 11.757812 -2.140625 11.21875 -2.796875 C 10.6875 -3.460938 9.992188 -4.316406 9.140625 -5.359375 C 8.285156 -6.398438 7.210938 -7.695312 5.921875 -9.25 L 10.109375 -13.46875 C 10.804688 -14.164062 11.285156 -14.753906 11.546875 -15.234375 C 11.804688 -15.722656 11.910156 -16.125 11.859375 -16.4375 C 11.816406 -16.757812 11.675781 -17.015625 11.4375 -17.203125 C 11.195312 -17.398438 10.90625 -17.539062 10.5625 -17.625 L 10.5625 -18.125 L 16.796875 -18.125 L 16.796875 -17.625 C 16.484375 -17.625 16.101562 -17.484375 15.65625 -17.203125 C 15.21875 -16.929688 14.742188 -16.570312 14.234375 -16.125 C 13.722656 -15.6875 13.195312 -15.21875 12.65625 -14.71875 Z M 7.9375 -10.265625 "/></g></g></g><g fill="#403e3e" fill-opacity="1"><g transform="translate(207.749271, 236.849677)"><g><path d="M 5.84375 0.359375 C 5.050781 0.359375 4.269531 0.3125 3.5 0.21875 C 2.726562 0.125 1.953125 -0.0351562 1.171875 -0.265625 L 0.78125 -5.484375 L 1.296875 -5.5625 C 1.742188 -3.832031 2.460938 -2.554688 3.453125 -1.734375 C 4.441406 -0.921875 5.628906 -0.515625 7.015625 -0.515625 C 7.734375 -0.515625 8.390625 -0.65625 8.984375 -0.9375 C 9.578125 -1.21875 10.050781 -1.601562 10.40625 -2.09375 C 10.769531 -2.582031 10.953125 -3.160156 10.953125 -3.828125 C 10.953125 -4.753906 10.742188 -5.472656 10.328125 -5.984375 C 9.921875 -6.503906 9.363281 -6.921875 8.65625 -7.234375 C 7.945312 -7.546875 7.132812 -7.851562 6.21875 -8.15625 C 4.65625 -8.71875 3.46875 -9.394531 2.65625 -10.1875 C 1.851562 -10.988281 1.453125 -12.039062 1.453125 -13.34375 C 1.453125 -14.289062 1.71875 -15.148438 2.25 -15.921875 C 2.78125 -16.691406 3.503906 -17.300781 4.421875 -17.75 C 5.335938 -18.207031 6.394531 -18.4375 7.59375 -18.4375 C 8.351562 -18.4375 9.078125 -18.390625 9.765625 -18.296875 C 10.460938 -18.210938 11.148438 -18.082031 11.828125 -17.90625 L 12.265625 -13.046875 L 11.78125 -12.96875 C 11.289062 -14.457031 10.640625 -15.582031 9.828125 -16.34375 C 9.015625 -17.113281 7.96875 -17.5 6.6875 -17.5 C 5.675781 -17.5 4.828125 -17.226562 4.140625 -16.6875 C 3.460938 -16.15625 3.125 -15.4375 3.125 -14.53125 C 3.125 -13.71875 3.382812 -13.039062 3.90625 -12.5 C 4.425781 -11.96875 5.125 -11.507812 6 -11.125 C 6.875 -10.75 7.828125 -10.378906 8.859375 -10.015625 C 10.203125 -9.546875 11.203125 -8.945312 11.859375 -8.21875 C 12.515625 -7.488281 12.84375 -6.515625 12.84375 -5.296875 C 12.84375 -4.222656 12.566406 -3.257812 12.015625 -2.40625 C 11.460938 -1.550781 10.660156 -0.875 9.609375 -0.375 C 8.554688 0.113281 7.300781 0.359375 5.84375 0.359375 Z M 5.84375 0.359375 "/></g></g></g><g fill="#403e3e" fill-opacity="1"><g transform="translate(227.869138, 236.849677)"><g><path d="M 17.46875 -13.78125 L 17.46875 -4.34375 C 17.46875 -3.539062 17.503906 -2.890625 17.578125 -2.390625 C 17.648438 -1.898438 17.832031 -1.507812 18.125 -1.21875 C 18.414062 -0.925781 18.898438 -0.691406 19.578125 -0.515625 L 19.578125 0 L 13.078125 0 L 13.078125 -0.515625 C 13.773438 -0.691406 14.257812 -0.929688 14.53125 -1.234375 C 14.8125 -1.535156 14.976562 -1.9375 15.03125 -2.4375 C 15.09375 -2.945312 15.125 -3.582031 15.125 -4.34375 L 15.125 -9.28125 L 5.359375 -9.28125 L 5.359375 -4.34375 C 5.359375 -3.539062 5.390625 -2.890625 5.453125 -2.390625 C 5.523438 -1.898438 5.707031 -1.507812 6 -1.21875 C 6.300781 -0.925781 6.789062 -0.691406 7.46875 -0.515625 L 7.46875 0 L 0.96875 0 L 0.96875 -0.515625 C 1.65625 -0.691406 2.132812 -0.929688 2.40625 -1.234375 C 2.6875 -1.535156 2.859375 -1.9375 2.921875 -2.4375 C 2.984375 -2.945312 3.015625 -3.582031 3.015625 -4.34375 L 3.015625 -13.78125 C 3.015625 -14.570312 2.976562 -15.210938 2.90625 -15.703125 C 2.84375 -16.203125 2.664062 -16.597656 2.375 -16.890625 C 2.09375 -17.191406 1.601562 -17.429688 0.90625 -17.609375 L 0.90625 -18.125 L 7.40625 -18.125 L 7.40625 -17.609375 C 6.726562 -17.429688 6.242188 -17.191406 5.953125 -16.890625 C 5.671875 -16.585938 5.5 -16.1875 5.4375 -15.6875 C 5.382812 -15.195312 5.359375 -14.5625 5.359375 -13.78125 L 5.359375 -10.015625 L 15.125 -10.015625 L 15.125 -13.78125 C 15.125 -14.570312 15.085938 -15.210938 15.015625 -15.703125 C 14.953125 -16.203125 14.773438 -16.597656 14.484375 -16.890625 C 14.203125 -17.191406 13.71875 -17.429688 13.03125 -17.609375 L 13.03125 -18.125 L 19.53125 -18.125 L 19.53125 -17.609375 C 18.851562 -17.429688 18.367188 -17.191406 18.078125 -16.890625 C 17.796875 -16.585938 17.625 -16.1875 17.5625 -15.6875 C 17.5 -15.195312 17.46875 -14.5625 17.46875 -13.78125 Z M 17.46875 -13.78125 "/></g></g></g><g fill="#403e3e" fill-opacity="1"><g transform="translate(254.720993, 236.849677)"><g><path d="M 3.0625 -4.34375 L 3.0625 -13.78125 C 3.0625 -14.570312 3.023438 -15.210938 2.953125 -15.703125 C 2.890625 -16.203125 2.710938 -16.597656 2.421875 -16.890625 C 2.140625 -17.191406 1.65625 -17.429688 0.96875 -17.609375 L 0.96875 -18.125 L 7.46875 -18.125 L 7.46875 -17.609375 C 6.789062 -17.429688 6.304688 -17.191406 6.015625 -16.890625 C 5.734375 -16.585938 5.5625 -16.1875 5.5 -15.6875 C 5.4375 -15.195312 5.40625 -14.5625 5.40625 -13.78125 L 5.40625 -4.34375 C 5.40625 -3.539062 5.4375 -2.890625 5.5 -2.390625 C 5.570312 -1.898438 5.753906 -1.507812 6.046875 -1.21875 C 6.347656 -0.925781 6.835938 -0.691406 7.515625 -0.515625 L 7.515625 0 L 1.015625 0 L 1.015625 -0.515625 C 1.703125 -0.691406 2.1875 -0.929688 2.46875 -1.234375 C 2.75 -1.535156 2.914062 -1.9375 2.96875 -2.4375 C 3.03125 -2.945312 3.0625 -3.582031 3.0625 -4.34375 Z M 3.0625 -4.34375 "/></g></g></g></svg>